<?xml version="1.0" encoding="utf-8"?>
<!-- Generator: Adobe Illustrator 22.1.0, SVG Export Plug-In . SVG Version: 6.00 Build 0)  -->
<svg version="1.1" id="Layer_1" xmlns="http://www.w3.org/2000/svg" xmlns:xlink="http://www.w3.org/1999/xlink" x="0px" y="0px"
	 viewBox="0 0 18.7 65.4" style="enable-background:new 0 0 18.7 65.4;" xml:space="preserve">
<path d="M7.2,0.9c1.2-1.2,3.1-1.2,4.2,0l6.4,6.4c0.9,0.9,1.1,2.1,0.7,3.3c-0.2,0.4-0.4,0.7-0.7,1c-0.6,0.6-1.3,0.9-2.1,0.9l-3.4,0
	l0,11.8c0,1.7-1.3,3-3,3s-3-1.3-3-3V12.4l-3.4,0c-1.2,0-2.3-0.7-2.8-1.9C-0.2,9.4,0,8.1,0.9,7.2L7.2,0.9z M6.4,41.2c0-1.7,1.3-3,3-3
	s3,1.3,3,3l0,11.8h3.4c1.2,0,2.3,0.7,2.8,1.9c0.5,1.1,0.2,2.4-0.7,3.3l-6.4,6.4c-1.2,1.2-3.1,1.2-4.2,0l-6.4-6.4
	C0,57.3-0.2,56,0.2,54.9c0.2-0.4,0.4-0.7,0.7-1C1.4,53.4,2.2,53,3,53h3.4V41.2z" fill="#8fccb6"/>
</svg>
