<?xml version="1.0" encoding="utf-8"?>
<!-- Generator: Adobe Illustrator 22.1.0, SVG Export Plug-In . SVG Version: 6.00 Build 0)  -->
<svg version="1.1" id="Layer_1" xmlns="http://www.w3.org/2000/svg" xmlns:xlink="http://www.w3.org/1999/xlink" x="0px" y="0px"
	 viewBox="0 0 24 30" style="enable-background:new 0 0 24 30;" xml:space="preserve">
<path d="M21,24v4.5c0,0.8-0.7,1.5-1.5,1.5S18,29.3,18,28.5V24c-1.7,0-3-1.3-3-3v-3c0-1.7,1.3-3,3-3V1.5C18,0.7,18.7,0,19.5,0
	S21,0.7,21,1.5V15c1.7,0,3,1.3,3,3v3C24,22.7,22.7,24,21,24z"/>
<path d="M6,15v13.5C6,29.3,5.3,30,4.5,30S3,29.3,3,28.5V15c-1.7,0-3-1.3-3-3V9c0-1.7,1.3-3,3-3V1.5C3,0.7,3.7,0,4.5,0
	C5.3,0,6,0.7,6,1.5V6c1.7,0,3,1.3,3,3v3C9,13.7,7.7,15,6,15z" fill="#8fccb6"/>
</svg>
