<?xml version="1.0" encoding="utf-8"?>
<!-- Generator: Adobe Illustrator 22.1.0, SVG Export Plug-In . SVG Version: 6.00 Build 0)  -->
<svg version="1.1" id="Layer_1" xmlns="http://www.w3.org/2000/svg" xmlns:xlink="http://www.w3.org/1999/xlink" x="0px" y="0px"
	 viewBox="0 0 48 48" style="enable-background:new 0 0 48 48;fill:#fff;" xml:space="preserve">
<path d="M48,9v30c0,5-4,9-9,9h-6v-6h6c1.7,0,3-1.3,3-3V9c0-1.7-1.3-3-3-3H9C7.3,6,6,7.3,6,9v30c0,1.7,1.3,3,3,3h6v6H9c-5,0-9-4-9-9
	V9c0-5,4-9,9-9h30C44,0,48,4,48,9z M15.2,34.1c-0.5-1.1-0.2-2.4,0.7-3.3l6-6c0.6-0.6,1.4-0.9,2.1-0.9s1.5,0.3,2.1,0.9l6,6
	c0.9,0.9,1.1,2.1,0.7,3.3C32.3,35.3,31.2,36,30,36h-3v9c0,1.7-1.3,3-3,3c-1.7,0-3-1.3-3-3v-9h-3C16.8,36,15.7,35.3,15.2,34.1z"/>
</svg>
