<svg xmlns="http://www.w3.org/2000/svg" xmlns:xlink="http://www.w3.org/1999/xlink" version="1.1" width="36" height="42" enable-background="new 0 0 16 16" xml:space="preserve" fill="#8fccb6" style=""><rect id="backgroundrect" width="100%" height="100%" x="0" y="0" fill="none" stroke="none"/> <g class="currentLayer" style=""><title>Layer 1</title><path d="M36,39 c0,1.6590000000000007 -1.3410000000000002,3 -3,3 L3,42 c-1.6560000000000001,0 -3,-1.3410000000000002 -3,-3 c0,-6 5.799,-11.598 11.727,-13.812 C8.304,23.073 6,19.317 6,15 L6,12 c0,-6.627 5.373,-12 12,-12 s12,5.373 12,12 l0,3 c0,4.317 -2.3040000000000003,8.073 -5.724,10.188 C30.201,27.402 36,33 36,39 z" id="svg_1" class="selected" fill="#ffffff" fill-opacity="1"/></g></svg>